<mxfile host="app.diagrams.net" modified="2024-01-07T18:24:50.572Z" agent="Mozilla/5.0 (Windows NT 10.0; Win64; x64) AppleWebKit/537.36 (KHTML, like Gecko) Chrome/120.0.0.0 Safari/537.36" etag="JzfcPodW7ZvpNcuJcVLZ" version="22.1.17" type="github">
  <diagram name="Page-1" id="TBT0o0lYzOYigEWd13yd">
    <mxGraphModel dx="1434" dy="1838" grid="1" gridSize="10" guides="1" tooltips="1" connect="1" arrows="1" fold="1" page="1" pageScale="1" pageWidth="850" pageHeight="1100" math="0" shadow="0">
      <root>
        <mxCell id="0" />
        <mxCell id="1" parent="0" />
        <mxCell id="S-vyNk8GRRfYpbGYyS5K-2" value="VPC" style="sketch=0;outlineConnect=0;gradientColor=none;html=1;whiteSpace=wrap;fontSize=12;fontStyle=0;shape=mxgraph.aws4.group;grIcon=mxgraph.aws4.group_vpc;strokeColor=#879196;fillColor=none;verticalAlign=top;align=left;spacingLeft=30;fontColor=#879196;dashed=0;" vertex="1" parent="1">
          <mxGeometry x="300" y="125" width="1120" height="740" as="geometry" />
        </mxCell>
        <mxCell id="S-vyNk8GRRfYpbGYyS5K-8" value="AWS Account" style="points=[[0,0],[0.25,0],[0.5,0],[0.75,0],[1,0],[1,0.25],[1,0.5],[1,0.75],[1,1],[0.75,1],[0.5,1],[0.25,1],[0,1],[0,0.75],[0,0.5],[0,0.25]];outlineConnect=0;gradientColor=none;html=1;whiteSpace=wrap;fontSize=12;fontStyle=0;container=1;pointerEvents=0;collapsible=0;recursiveResize=0;shape=mxgraph.aws4.group;grIcon=mxgraph.aws4.group_account;strokeColor=#CD2264;fillColor=none;verticalAlign=top;align=left;spacingLeft=30;fontColor=#CD2264;dashed=0;" vertex="1" parent="1">
          <mxGeometry x="80" y="-100" width="1590" height="1140" as="geometry" />
        </mxCell>
        <mxCell id="S-vyNk8GRRfYpbGYyS5K-1" value="Region" style="sketch=0;outlineConnect=0;gradientColor=none;html=1;whiteSpace=wrap;fontSize=12;fontStyle=0;shape=mxgraph.aws4.group;grIcon=mxgraph.aws4.group_region;strokeColor=#ea7f06;fillColor=none;verticalAlign=top;align=left;spacingLeft=30;fontColor=#B6BABF;dashed=1;strokeWidth=2;" vertex="1" parent="S-vyNk8GRRfYpbGYyS5K-8">
          <mxGeometry x="40" y="40" width="1360" height="1040" as="geometry" />
        </mxCell>
        <mxCell id="S-vyNk8GRRfYpbGYyS5K-16" value="" style="outlineConnect=0;dashed=0;verticalLabelPosition=bottom;verticalAlign=top;align=center;html=1;shape=mxgraph.aws3.internet_gateway;fillColor=#F58534;gradientColor=none;" vertex="1" parent="S-vyNk8GRRfYpbGYyS5K-8">
          <mxGeometry x="760.5" y="110" width="69" height="72" as="geometry" />
        </mxCell>
        <mxCell id="S-vyNk8GRRfYpbGYyS5K-3" value="" style="outlineConnect=0;dashed=0;verticalLabelPosition=bottom;verticalAlign=top;align=center;html=1;shape=mxgraph.aws3.s3;fillColor=#E05243;gradientColor=none;" vertex="1" parent="S-vyNk8GRRfYpbGYyS5K-8">
          <mxGeometry x="80" y="490" width="76.5" height="93" as="geometry" />
        </mxCell>
        <mxCell id="S-vyNk8GRRfYpbGYyS5K-6" value="" style="sketch=0;outlineConnect=0;fontColor=#232F3E;gradientColor=none;fillColor=#ED7100;strokeColor=none;dashed=0;verticalLabelPosition=bottom;verticalAlign=top;align=center;html=1;fontSize=12;fontStyle=0;aspect=fixed;pointerEvents=1;shape=mxgraph.aws4.auto_scaling2;" vertex="1" parent="S-vyNk8GRRfYpbGYyS5K-8">
          <mxGeometry x="275" y="560" width="35" height="35" as="geometry" />
        </mxCell>
        <mxCell id="S-vyNk8GRRfYpbGYyS5K-5" value="" style="rounded=0;whiteSpace=wrap;html=1;fillColor=none;dashed=1;fontStyle=0;strokeWidth=2;strokeColor=#ea7f06;" vertex="1" parent="1">
          <mxGeometry x="350" y="460" width="1020" height="290" as="geometry" />
        </mxCell>
        <mxCell id="S-vyNk8GRRfYpbGYyS5K-4" value="Availability zone - 1" style="sketch=0;outlineConnect=0;gradientColor=none;html=1;whiteSpace=wrap;fontSize=12;fontStyle=0;shape=mxgraph.aws4.group;grIcon=mxgraph.aws4.group_availability_zone;strokeColor=#545B64;fillColor=none;verticalAlign=top;align=left;spacingLeft=30;fontColor=#545B64;dashed=1;" vertex="1" parent="1">
          <mxGeometry x="425" y="190" width="425" height="590" as="geometry" />
        </mxCell>
        <mxCell id="S-vyNk8GRRfYpbGYyS5K-7" value="Availability zone - 2" style="sketch=0;outlineConnect=0;gradientColor=none;html=1;whiteSpace=wrap;fontSize=12;fontStyle=0;shape=mxgraph.aws4.group;grIcon=mxgraph.aws4.group_availability_zone;strokeColor=#545B64;fillColor=none;verticalAlign=top;align=left;spacingLeft=30;fontColor=#545B64;dashed=1;" vertex="1" parent="1">
          <mxGeometry x="880" y="190" width="425" height="590" as="geometry" />
        </mxCell>
        <mxCell id="S-vyNk8GRRfYpbGYyS5K-10" value="Public subnet - 1" style="points=[[0,0],[0.25,0],[0.5,0],[0.75,0],[1,0],[1,0.25],[1,0.5],[1,0.75],[1,1],[0.75,1],[0.5,1],[0.25,1],[0,1],[0,0.75],[0,0.5],[0,0.25]];outlineConnect=0;gradientColor=none;html=1;whiteSpace=wrap;fontSize=12;fontStyle=0;container=1;pointerEvents=0;collapsible=0;recursiveResize=0;shape=mxgraph.aws4.group;grIcon=mxgraph.aws4.group_security_group;grStroke=0;strokeColor=#7AA116;fillColor=#F2F6E8;verticalAlign=top;align=left;spacingLeft=30;fontColor=#248814;dashed=0;" vertex="1" parent="1">
          <mxGeometry x="460" y="240" width="350" height="200" as="geometry" />
        </mxCell>
        <mxCell id="S-vyNk8GRRfYpbGYyS5K-11" value="Public subnet - 2" style="points=[[0,0],[0.25,0],[0.5,0],[0.75,0],[1,0],[1,0.25],[1,0.5],[1,0.75],[1,1],[0.75,1],[0.5,1],[0.25,1],[0,1],[0,0.75],[0,0.5],[0,0.25]];outlineConnect=0;gradientColor=none;html=1;whiteSpace=wrap;fontSize=12;fontStyle=0;container=1;pointerEvents=0;collapsible=0;recursiveResize=0;shape=mxgraph.aws4.group;grIcon=mxgraph.aws4.group_security_group;grStroke=0;strokeColor=#7AA116;fillColor=#F2F6E8;verticalAlign=top;align=left;spacingLeft=30;fontColor=#248814;dashed=0;" vertex="1" parent="1">
          <mxGeometry x="917.5" y="240" width="350" height="200" as="geometry" />
        </mxCell>
        <mxCell id="S-vyNk8GRRfYpbGYyS5K-12" value="Private subnet - 1" style="points=[[0,0],[0.25,0],[0.5,0],[0.75,0],[1,0],[1,0.25],[1,0.5],[1,0.75],[1,1],[0.75,1],[0.5,1],[0.25,1],[0,1],[0,0.75],[0,0.5],[0,0.25]];outlineConnect=0;gradientColor=none;html=1;whiteSpace=wrap;fontSize=12;fontStyle=0;container=1;pointerEvents=0;collapsible=0;recursiveResize=0;shape=mxgraph.aws4.group;grIcon=mxgraph.aws4.group_security_group;grStroke=0;strokeColor=#00A4A6;fillColor=#E6F6F7;verticalAlign=top;align=left;spacingLeft=30;fontColor=#147EBA;dashed=0;" vertex="1" parent="1">
          <mxGeometry x="460" y="485" width="350" height="255" as="geometry" />
        </mxCell>
        <mxCell id="S-vyNk8GRRfYpbGYyS5K-13" value="Private subnet - 2" style="points=[[0,0],[0.25,0],[0.5,0],[0.75,0],[1,0],[1,0.25],[1,0.5],[1,0.75],[1,1],[0.75,1],[0.5,1],[0.25,1],[0,1],[0,0.75],[0,0.5],[0,0.25]];outlineConnect=0;gradientColor=none;html=1;whiteSpace=wrap;fontSize=12;fontStyle=0;container=1;pointerEvents=0;collapsible=0;recursiveResize=0;shape=mxgraph.aws4.group;grIcon=mxgraph.aws4.group_security_group;grStroke=0;strokeColor=#00A4A6;fillColor=#E6F6F7;verticalAlign=top;align=left;spacingLeft=30;fontColor=#147EBA;dashed=0;" vertex="1" parent="1">
          <mxGeometry x="925" y="480" width="350" height="255" as="geometry" />
        </mxCell>
        <mxCell id="S-vyNk8GRRfYpbGYyS5K-14" value="" style="outlineConnect=0;dashed=0;verticalLabelPosition=bottom;verticalAlign=top;align=center;html=1;shape=mxgraph.aws3.ec2;fillColor=#F58534;gradientColor=none;" vertex="1" parent="1">
          <mxGeometry x="570" y="560" width="60" height="70" as="geometry" />
        </mxCell>
        <mxCell id="S-vyNk8GRRfYpbGYyS5K-15" value="" style="outlineConnect=0;dashed=0;verticalLabelPosition=bottom;verticalAlign=top;align=center;html=1;shape=mxgraph.aws3.ec2;fillColor=#F58534;gradientColor=none;" vertex="1" parent="1">
          <mxGeometry x="1040" y="560" width="60" height="70" as="geometry" />
        </mxCell>
        <mxCell id="S-vyNk8GRRfYpbGYyS5K-17" value="" style="outlineConnect=0;dashed=0;verticalLabelPosition=bottom;verticalAlign=top;align=center;html=1;shape=mxgraph.aws3.vpc_nat_gateway;fillColor=#F58534;gradientColor=none;" vertex="1" parent="1">
          <mxGeometry x="510" y="295" width="60" height="60" as="geometry" />
        </mxCell>
        <mxCell id="S-vyNk8GRRfYpbGYyS5K-18" value="" style="outlineConnect=0;dashed=0;verticalLabelPosition=bottom;verticalAlign=top;align=center;html=1;shape=mxgraph.aws3.vpc_nat_gateway;fillColor=#F58534;gradientColor=none;" vertex="1" parent="1">
          <mxGeometry x="1180" y="280" width="60" height="60" as="geometry" />
        </mxCell>
        <mxCell id="S-vyNk8GRRfYpbGYyS5K-19" value="" style="sketch=0;outlineConnect=0;fontColor=#232F3E;gradientColor=none;fillColor=#8C4FFF;strokeColor=none;dashed=0;verticalLabelPosition=bottom;verticalAlign=top;align=center;html=1;fontSize=12;fontStyle=0;aspect=fixed;pointerEvents=1;shape=mxgraph.aws4.application_load_balancer;" vertex="1" parent="1">
          <mxGeometry x="700" y="310" width="60" height="60" as="geometry" />
        </mxCell>
        <mxCell id="S-vyNk8GRRfYpbGYyS5K-20" value="" style="sketch=0;outlineConnect=0;fontColor=#232F3E;gradientColor=none;fillColor=#8C4FFF;strokeColor=none;dashed=0;verticalLabelPosition=bottom;verticalAlign=top;align=center;html=1;fontSize=12;fontStyle=0;aspect=fixed;pointerEvents=1;shape=mxgraph.aws4.application_load_balancer;" vertex="1" parent="1">
          <mxGeometry x="930" y="310" width="60" height="60" as="geometry" />
        </mxCell>
        <mxCell id="S-vyNk8GRRfYpbGYyS5K-22" value="Application Load Balancer" style="rounded=0;whiteSpace=wrap;html=1;fillColor=none;dashed=1;strokeWidth=2;verticalAlign=top;fontStyle=1" vertex="1" parent="1">
          <mxGeometry x="660" y="293" width="350" height="90" as="geometry" />
        </mxCell>
        <mxCell id="S-vyNk8GRRfYpbGYyS5K-23" value="Security Group" style="fontStyle=1;verticalAlign=top;align=center;spacingTop=-2;fillColor=none;rounded=0;whiteSpace=wrap;html=1;strokeColor=#FF0000;strokeWidth=2;dashed=1;container=1;collapsible=0;expand=0;recursiveResize=0;" vertex="1" parent="1">
          <mxGeometry x="535" y="530" width="645" height="120" as="geometry" />
        </mxCell>
      </root>
    </mxGraphModel>
  </diagram>
</mxfile>
